<?xml version="1.0" encoding="UTF-8" standalone="no"?>
<!--?xml version="1.0" standalone="no"?-->

<svg
   xmlns:dc="http://purl.org/dc/elements/1.1/"
   xmlns:cc="http://creativecommons.org/ns#"
   xmlns:rdf="http://www.w3.org/1999/02/22-rdf-syntax-ns#"
   xmlns:svg="http://www.w3.org/2000/svg"
   xmlns="http://www.w3.org/2000/svg"
   xmlns:sodipodi="http://sodipodi.sourceforge.net/DTD/sodipodi-0.dtd"
   xmlns:inkscape="http://www.inkscape.org/namespaces/inkscape"
   id="svg2"
   height="337.56195"
   width="171.16016"
   version="1.0"
   preserveAspectRatio="xMidYMid meet"
   viewBox="0 0 136.92812 270.04956"
   inkscape:version="0.48.5 r10040"
   sodipodi:docname="person2.svg">
  <metadata
     id="metadata21">
    <rdf:RDF>
      <cc:Work
         rdf:about="">
        <dc:format>image/svg+xml</dc:format>
        <dc:type
           rdf:resource="http://purl.org/dc/dcmitype/StillImage" />
        <dc:title></dc:title>
      </cc:Work>
    </rdf:RDF>
  </metadata>
  <defs
     id="defs19" />
  <sodipodi:namedview
     pagecolor="#ffffff"
     bordercolor="#666666"
     borderopacity="1"
     objecttolerance="10"
     gridtolerance="10"
     guidetolerance="10"
     inkscape:pageopacity="0"
     inkscape:pageshadow="2"
     inkscape:window-width="1536"
     inkscape:window-height="803"
     id="namedview17"
     showgrid="false"
     inkscape:zoom="0.89001174"
     inkscape:cx="58.73665"
     inkscape:cy="115.30646"
     inkscape:window-x="-8"
     inkscape:window-y="-8"
     inkscape:window-maximized="1"
     inkscape:current-layer="layer1"
     fit-margin-top="0"
     fit-margin-left="0"
     fit-margin-right="0"
     fit-margin-bottom="0">
    <inkscape:grid
       type="xygrid"
       id="grid3808"
       empspacing="5"
       visible="true"
       enabled="true"
       snapvisiblegridlinesonly="true"
       originx="-204.875px"
       originy="-22.625px" />
  </sodipodi:namedview>
  <path
     class="meds"
     d="m 38.5,52.149569 0,24 32,0 0,-24 -32,0"
     id="path3"
     inkscape:connector-curvature="0"
     style="fill:#ffe001" />
  <path
     class="lifestyle"
     d="m 13.2,73.149569 c -4.1,1.2 -9.4,5.6 -11.5,9.3 -1.5,2.9 -1.7,6.9 -1.7,41.200001 0,34 0.2,38.4 1.7,41.7 2.2,4.5 6.9,8.3 12.6,9.7 l 4.2,1.2 c 0,-0.1 76,0 76,0 l 4.3,-1.2 c 5.6,-1.4 10.3,-5.2 12.5,-9.7 1.5,-3.3 1.7,-7.7 1.7,-41.2 0,-36.400001 -0.1,-37.600001 -2.1,-41.500001 -1.2,-2.2 -3.1,-4.8 -4.2,-5.8 -4.8,-4.4 -7.7,-4.6 -50.2,-4.6 -22.3,0.1 -41.8,0.5 -43.3,0.9 z"
     id="path7"
     inkscape:connector-curvature="0"
     style="fill:#f00001" />
  <path
     class="mind"
     d="m 82.46523,28.115976 a 27.9664,27.9664 0 1 1 -55.932,0 27.9664,27.9664 0 1 1 55.932,0 z"
     id="path9"
     inkscape:connector-curvature="0"
     style="fill:#00c000;fill-rule:evenodd" />
  <path
     class="meds"
     d="m 18.5,176.14957 0,-60 76,0 0,60 z"
     id="path11"
     inkscape:connector-curvature="0"
     style="fill:#ffe001" />
  <path
     class="mobility"
     d="m 18.5,176.14957 0,46.3 c 0,41.4 0.2,46.5 1.6,47 2,0.8 70.8,0.8 72.8,0 1.4,-0.5 1.6,-5.6 1.6,-47 v -46.3 z"
     id="path13"
     inkscape:connector-curvature="0"
     style="fill:#45c601" />
  <path
     style="fill:#fe0c0c;fill-opacity:1"
     inkscape:connector-curvature="0"
     class="mobility"
     d="m 18.5,240.88178 0,14.17682 c 0,12.67646 0.2,14.23806 1.6,14.39115 2,0.24496 70.8,0.24496 72.8,0 1.4,-0.15309 1.6,-1.71469 1.6,-14.39115 v -14.17682 z"
     id="path13-1" />
  <path
     style="fill:none;stroke:#afafaf;stroke-width:2.40000010000000020;stroke-linecap:round;stroke-linejoin:miter;stroke-miterlimit:4;stroke-opacity:1;stroke-dasharray:none"
     d="m 133.4633,11.299287 -79.99895,0"
     id="path3810"
     inkscape:connector-curvature="0" />
  <path
     style="fill:none;stroke:#afafaf;stroke-width:2.40000010000000020;stroke-linecap:round;stroke-linejoin:miter;stroke-miterlimit:4;stroke-opacity:1;stroke-dasharray:none"
     d="m 133.91273,61.186269 -81.34724,0"
     id="path3812"
     inkscape:connector-curvature="0" />
  <path
     style="fill:none;stroke:#afafaf;stroke-width:2.40000010000000020;stroke-linecap:round;stroke-linejoin:miter;stroke-miterlimit:4;stroke-opacity:1;stroke-dasharray:none"
     d="m 134.8116,108.37666 -31.01083,0"
     id="path3814"
     inkscape:connector-curvature="0" />
  <path
     style="fill:none;stroke:#afafaf;stroke-width:2.40000010000000020;stroke-linecap:round;stroke-linejoin:miter;stroke-miterlimit:4;stroke-opacity:1;stroke-dasharray:none"
     d="m 135.26103,156.46591 -79.10008,0"
     id="path3816"
     inkscape:connector-curvature="0" />
  <path
     style="fill:none;stroke:#afafaf;stroke-width:2.40000010000000020;stroke-linecap:round;stroke-linejoin:miter;stroke-miterlimit:4;stroke-opacity:1;stroke-dasharray:none"
     d="m 135.71046,204.10574 -77.30235,0"
     id="path3818"
     inkscape:connector-curvature="0" />
  <path
     style="fill:none;stroke:#afafaf;stroke-width:2.40000010000000020;stroke-linecap:round;stroke-linejoin:miter;stroke-miterlimit:4;stroke-opacity:1;stroke-dasharray:none"
     d="m 135.26103,252.64442 -75.50462,0"
     id="path3820"
     inkscape:connector-curvature="0" />
  <g
     inkscape:groupmode="layer"
     id="layer1"
     inkscape:label="Text"
     style="display:none"
     transform="translate(-163.9,-11.850431)" />
</svg>
