<?xml version="1.0" encoding="UTF-8" standalone="no"?>
<!DOCTYPE svg PUBLIC "-//W3C//DTD SVG 20010904//EN"
              "http://www.w3.org/TR/2001/REC-SVG-20010904/DTD/svg10.dtd">

<svg xmlns="http://www.w3.org/2000/svg"
     width="2.80556in" height="6.94444in"
     viewBox="0 0 202 500">
  <path id="Selection"
        fill="none" stroke="black" stroke-width="1"
        d="M 16.00,216.00
           C 16.00,216.00 0.60,199.00 0.60,199.00
             0.60,199.00 0.00,192.00 0.00,192.00
             0.00,192.00 0.00,106.00 0.00,106.00
             0.00,106.00 0.60,99.00 0.60,99.00
             0.60,99.00 14.00,83.56 14.00,83.56
             14.00,83.56 55.00,42.00 55.00,42.00
             55.00,42.00 84.00,12.00 84.00,12.00
             84.00,12.00 96.96,0.89 96.96,0.89
             96.96,0.89 103.00,2.00 103.00,2.00
             104.32,6.59 110.48,10.91 114.01,14.17
             114.01,14.17 136.00,35.00 136.00,35.00
             139.35,38.34 143.44,43.80 148.00,45.00
             149.02,48.82 161.30,60.03 165.00,61.00
             166.26,65.35 170.81,67.98 174.00,71.04
             174.00,71.04 193.00,89.01 193.00,89.01
             195.22,91.18 199.67,95.38 200.98,98.00
             202.19,100.43 201.99,103.35 202.00,106.00
             202.00,106.00 202.00,192.00 202.00,192.00
             202.00,194.09 202.12,197.06 201.40,199.00
             199.98,202.85 191.26,210.74 188.00,214.00
             188.00,214.00 153.00,249.00 153.00,249.00
             153.00,249.00 117.99,285.00 117.99,285.00
             117.99,285.00 48.00,355.00 48.00,355.00
             48.00,355.00 16.00,387.00 16.00,387.00
             10.69,392.32 5.87,398.30 0.00,403.00
             0.00,403.00 0.00,306.00 0.00,306.00
             0.00,306.00 0.56,299.29 0.56,299.29
             0.56,299.29 14.08,284.61 14.08,284.61
             14.08,284.61 52.00,246.00 52.00,246.00
             52.00,246.00 51.00,245.00 51.00,245.00
             51.00,245.00 49.00,247.00 49.00,247.00
             49.00,247.00 49.00,248.00 49.00,248.00
             49.00,248.00 47.00,248.00 47.00,248.00
             44.15,244.02 39.85,238.28 35.00,237.00
             34.30,234.08 33.89,233.73 31.00,233.00
             30.30,230.08 29.89,229.73 27.00,229.00
             26.30,226.08 25.89,225.73 23.00,225.00
             23.00,225.00 16.00,216.00 16.00,216.00 Z
           M 90.00,111.00
           C 85.30,111.79 83.37,114.41 79.91,117.46
             79.91,117.46 64.00,131.92 64.00,131.92
             60.55,135.09 57.93,136.18 57.00,141.00
             57.00,141.00 47.00,147.00 47.00,147.00
             49.62,150.31 51.66,153.28 56.00,154.00
             56.65,158.97 61.61,162.60 65.00,166.00
             65.00,166.00 85.09,187.00 85.09,187.00
             87.33,189.39 94.73,195.61 94.42,198.83
             94.21,200.95 89.21,205.57 87.60,207.20
             82.37,212.48 71.85,222.63 68.00,228.00
             68.00,228.00 69.00,229.00 69.00,229.00
             69.00,229.00 97.00,202.00 97.00,202.00
             97.00,202.00 149.00,150.00 149.00,150.00
             149.00,150.00 132.00,133.58 132.00,133.58
             132.00,133.58 123.00,128.00 123.00,128.00
             122.06,123.15 119.44,122.13 116.00,118.91
             116.00,118.91 98.00,102.00 98.00,102.00
             93.92,104.60 90.96,106.00 90.00,111.00 Z
           M 60.00,236.00
           C 60.00,236.00 61.00,237.00 61.00,237.00
             61.00,237.00 69.00,229.00 69.00,229.00
             69.00,229.00 68.00,228.00 68.00,228.00
             68.00,228.00 60.00,236.00 60.00,236.00 Z
           M 56.00,240.00
           C 56.00,240.00 57.00,241.00 57.00,241.00
             57.00,241.00 61.00,237.00 61.00,237.00
             61.00,237.00 60.00,236.00 60.00,236.00
             60.00,236.00 56.00,240.00 56.00,240.00 Z
           M 51.00,245.00
           C 51.00,245.00 52.00,246.00 52.00,246.00
             52.00,246.00 57.00,241.00 57.00,241.00
             57.00,241.00 56.00,240.00 56.00,240.00
             56.00,240.00 51.00,245.00 51.00,245.00 Z
           M 144.89,349.17
           C 144.42,346.98 136.88,339.88 135.00,338.00
             135.00,338.00 112.30,314.09 112.30,314.09
             110.16,311.76 104.28,306.00 104.10,303.01
             103.91,299.82 108.89,295.78 111.00,293.56
             111.00,293.56 131.00,273.00 131.00,273.00
             131.00,273.00 144.00,260.00 144.00,260.00
             145.68,258.36 148.50,255.21 151.00,255.20
             153.36,255.18 156.09,258.03 157.71,259.57
             157.71,259.57 171.02,272.98 171.02,272.98
             171.02,272.98 188.04,289.44 188.04,289.44
             193.98,294.68 199.84,298.62 200.00,307.00
             200.00,307.00 200.00,339.00 200.00,339.00
             200.00,339.00 200.00,392.00 200.00,392.00
             200.00,394.09 200.12,397.06 199.40,399.00
             197.87,403.17 183.12,416.98 179.09,420.70
             179.09,420.70 121.58,477.80 121.58,477.80
             116.27,482.98 102.97,498.10 97.00,500.00
             97.00,500.00 97.00,406.00 97.00,406.00
             97.00,406.00 97.89,398.46 97.89,398.46
             97.89,398.46 106.00,388.00 106.00,388.00
             109.32,387.05 110.56,385.38 113.00,383.00
             116.73,379.37 126.97,371.71 128.00,367.00
             130.92,366.30 131.27,365.89 132.00,363.00
             135.59,361.97 145.76,353.17 144.89,349.17 Z" />
</svg>
